<svg xmlns="http://www.w3.org/2000/svg" width="200" height="200" viewBox="0 0 200 200">
  <defs>
    <linearGradient id="gradient" x1="0%" y1="0%" x2="100%" y2="100%">
      <stop offset="0%" stop-color="#4361ee" />
      <stop offset="50%" stop-color="#3a0ca3" />
      <stop offset="100%" stop-color="#7209b7" />
    </linearGradient>
  </defs>
  <g fill="none" stroke="url(#gradient)" stroke-width="4">
    <circle cx="100" cy="100" r="80" opacity="0.8" />
    <circle cx="100" cy="100" r="60" opacity="0.6" />
    <circle cx="100" cy="100" r="40" opacity="0.4" />
  </g>
  <g fill="url(#gradient)">
    <circle cx="100" cy="100" r="20" />
    <circle cx="100" cy="40" r="8" />
    <circle cx="160" cy="100" r="8" />
    <circle cx="100" cy="160" r="8" />
    <circle cx="40" cy="100" r="8" />
    <circle cx="140" cy="60" r="8" />
    <circle cx="140" cy="140" r="8" />
    <circle cx="60" cy="140" r="8" />
    <circle cx="60" cy="60" r="8" />
  </g>
  <path d="M100 40 L100 20 M160 100 L180 100 M100 160 L100 180 M40 100 L20 100 M140 60 L155 45 M140 140 L155 155 M60 140 L45 155 M60 60 L45 45" stroke="url(#gradient)" stroke-width="3" />
</svg>
